<?xml version="1.0" encoding="iso-8859-1"?>
<!-- Generator: Adobe Illustrator 17.1.0, SVG Export Plug-In . SVG Version: 6.00 Build 0)  -->
<!DOCTYPE svg PUBLIC "-//W3C//DTD SVG 1.1//EN" "http://www.w3.org/Graphics/SVG/1.1/DTD/svg11.dtd">
<svg version="1.1" id="Capa_1" xmlns="http://www.w3.org/2000/svg" xmlns:xlink="http://www.w3.org/1999/xlink" x="0px" y="0px"
	 viewBox="0 0 512 512" style="enable-background:new 0 0 512 512;" xml:space="preserve">
<path d="M440,304c0-43.052-21.436-84.853-42.167-125.275h0C383.85,151.458,368,120.555,368,101.945
	c0-5.191,0.307-11.804,1.477-18.152C375.275,86.542,381.598,88,388,88c24.262,0,44-19.738,44-44S412.262,0,388,0
	c-0.793,0-1.471,0.077-1.975,0.146C385.502,0.077,384.803,0,384,0c-20.85,0-40.135,8.348-54.301,23.507
	C313.898,40.415,305.102,65.393,304.1,96H296V69.835c4.774-2.771,8-7.928,8-13.835c0-8.822-7.178-16-16-16s-16,7.178-16,16
	c0,5.907,3.226,11.063,8,13.835V96h-16V29.835c4.774-2.771,8-7.928,8-13.835c0-8.822-7.178-16-16-16s-16,7.178-16,16
	c0,5.907,3.226,11.063,8,13.835V96h-16V69.835c4.774-2.771,8-7.928,8-13.835c0-8.822-7.178-16-16-16s-16,7.178-16,16
	c0,5.907,3.226,11.063,8,13.835V96h-8.1c-1.002-30.607-9.798-55.585-25.599-72.493C168.135,8.348,148.85,0,128,0
	c-0.803,0-1.502,0.077-2.025,0.146C125.471,0.077,124.793,0,124,0C99.738,0,80,19.738,80,44s19.738,44,44,44
	c6.402,0,12.725-1.458,18.523-4.207c1.17,6.349,1.477,12.961,1.477,18.152c0,18.609-15.85,49.513-29.833,76.779
	C93.436,219.147,72,260.948,72,304.125c0,62.025,45.286,115.476,109.994,139.034C177.406,455.479,165.487,464,152,464
	c-4.418,0-8,3.582-8,8v32c0,4.418,3.582,8,8,8h208c4.418,0,8-3.582,8-8v-32c0-4.418-3.582-8-8-8
	c-13.49,0-25.413-8.525-29.998-20.851C394.712,419.573,440,366.078,440,304z M304.508,112c3.025,30.882,19.274,62.575,36.407,95.982
	C358.164,241.627,376,276.417,376,304.125c0,29.705-20.235,56.01-51.137,71.924c-0.24-0.183-0.489-0.358-0.754-0.517
	c-7.743-4.637-17.343-8.331-28.109-10.96V112H304.508z M256,376c18.348,0,35.924,2.998,49.363,8.217
	C290.3,389.215,273.585,392,256,392c-17.58,0-34.289-2.787-49.348-7.789C220.089,378.995,237.659,376,256,376z M280,112v249.571
	c-5.182-0.694-10.537-1.153-16-1.386V112H280z M248,112v248.185c-5.463,0.233-10.818,0.692-16,1.386V112H248z M216,364.572
	c-10.766,2.629-20.366,6.323-28.109,10.96c-0.259,0.155-0.503,0.324-0.737,0.503C156.242,360.1,136,333.752,136,304
	c0-27.583,17.836-62.373,35.114-96.076c17.107-33.354,33.353-65.042,36.378-95.924H216V364.572z M324.255,464h-4.252
	c-4.418,0-8,3.582-8,8s3.582,8,8,8H352v16H160v-16h128.001c4.418,0,8-3.582,8-8s-3.582-8-8-8H187.745
	c4.117-4.581,7.372-9.975,9.493-15.942C215.698,453.206,235.461,456,256,456c20.538,0,40.3-2.796,58.76-7.948
	C316.881,454.022,320.137,459.417,324.255,464z M256,440c-92.636,0-168-60.953-168-135.875c0-39.313,20.54-79.366,40.403-118.1
	C143.938,155.737,160,124.419,160,101.945c0-9.336-0.915-22.757-5.275-33.674c-0.957-2.396-3.011-4.185-5.517-4.801
	c-0.633-0.156-1.274-0.232-1.912-0.232c-1.888,0-3.738,0.669-5.203,1.923C138.449,68.281,132.352,72,124,72
	c-15.439,0-28-12.561-28-28c0-15.38,12.465-27.903,27.823-27.999l0.195,0.025c0.506,0.071,1.013,0.134,1.531,0.163
	c0.375,0.022,0.75,0.016,1.124-0.016c0.393-0.033,0.781-0.083,1.167-0.136c0.094-0.013,0.188-0.027,0.282-0.038
	c9.514,0.021,27.566,2.463,42.489,18.431C184.604,49.404,192,72.751,192,101.945c0,30.196-17.061,63.46-35.153,98.737
	C138.732,236.018,120,272.555,120,304c0,57.346,61.009,104,136,104s136-46.599,136-103.875c0-31.57-18.732-68.107-36.878-103.502
	C337.061,165.405,320,132.142,320,101.945c0-29.194,7.396-52.541,21.389-67.515c14.923-15.968,32.975-18.41,42.489-18.431
	c0.094,0.011,0.188,0.025,0.282,0.038c0.387,0.053,0.774,0.103,1.167,0.136c0.374,0.031,0.749,0.038,1.124,0.016
	c0.518-0.029,1.025-0.092,1.531-0.163l0.195-0.025C403.535,16.097,416,28.62,416,44c0,15.439-12.561,28-28,28
	c-8.352,0-14.449-3.719-18.093-6.839c-1.96-1.679-4.608-2.309-7.115-1.69c-2.505,0.616-4.56,2.404-5.517,4.801
	C352.915,79.188,352,92.609,352,101.945c0,22.474,16.063,53.792,31.596,84.08C403.46,224.759,424,264.812,424,304
	C424,378.99,348.636,440,256,440z"/>
<g>
</g>
<g>
</g>
<g>
</g>
<g>
</g>
<g>
</g>
<g>
</g>
<g>
</g>
<g>
</g>
<g>
</g>
<g>
</g>
<g>
</g>
<g>
</g>
<g>
</g>
<g>
</g>
<g>
</g>
</svg>
