<?xml version="1.0" encoding="iso-8859-1"?>
<!-- Generator: Adobe Illustrator 19.0.0, SVG Export Plug-In . SVG Version: 6.00 Build 0)  -->
<svg version="1.1" id="Capa_1" xmlns="http://www.w3.org/2000/svg" xmlns:xlink="http://www.w3.org/1999/xlink" x="0px" y="0px"
	 viewBox="0 0 512 512" style="enable-background:new 0 0 512 512;" xml:space="preserve">
<g>
	<g>
		<path d="M243.432,377.323L256,402.475l12.568-25.152C261.918,371.112,250.082,371.112,243.432,377.323z"/>
	</g>
</g>
<g>
	<g>
		<path d="M165.998,211.015h-12.437c6.196,17.461,22.882,30.001,42.438,30.001h12.437
			C202.239,223.554,185.555,211.015,165.998,211.015z"/>
	</g>
</g>
<g>
	<g>
		<path d="M346.001,211.015c-19.556,0-36.241,12.539-42.438,30.001h12.437c19.557,0,36.242-12.539,42.438-30.001H346.001z"/>
	</g>
</g>
<g>
	<g>
		<path d="M331.002,91.012c-27.643,0-53.79,9.243-75.002,26.295c-21.211-17.051-47.359-26.295-75.002-26.295
			c-66.169,0-120.003,53.834-120.003,120.003v75.002c0,5.01,2.505,9.697,6.68,12.48l69.538,46.349l31.92,111.785
			C178.279,488.567,207.8,511.879,241,512v-72.435l-28.419-56.837c-2.109-4.219-2.109-9.199,0-13.418
			c8.276-16.553,24.918-26.837,43.419-26.837s35.143,10.283,43.419,26.837c2.109,4.219,2.109,9.199,0,13.418L271,439.565V512
			c33.2-0.121,62.72-23.433,71.867-55.383l31.92-111.771l69.538-46.349c4.175-2.783,6.68-7.471,6.68-12.48v-75.002
			C451.005,144.846,397.17,91.012,331.002,91.012z M225.999,271.016h-30.001c-41.354,0-75.002-33.648-75.002-75.002
			c0-8.291,6.709-15,15-15h30.001c41.354,0,75.002,33.648,75.002,75.002C241,264.307,234.291,271.016,225.999,271.016z
			 M316.002,271.016h-30.001c-8.291,0-15-6.709-15-15c0-41.354,33.648-75.002,75.002-75.002h30.001c8.291,0,15,6.709,15,15
			C391.003,237.369,357.355,271.016,316.002,271.016z"/>
	</g>
</g>
<g>
	<g>
		<path d="M455.824,27.052l-5.596-16.787c-2.622-7.852-11.06-12.129-18.97-9.478c-3.001,1.622-48.659,12.559-79.34,62.34
			c41.448,5.863,77.433,28.316,100.788,60.876C464.718,93.704,466.349,58.616,455.824,27.052z"/>
	</g>
</g>
<g>
	<g>
		<path d="M80.742,0.786c-7.954-2.651-16.348,1.626-18.97,9.478l-5.596,16.787c-10.524,31.565-8.893,66.653,3.119,96.951
			c23.356-32.561,59.34-55.013,100.787-60.876C129.282,13.152,83.754,2.414,80.742,0.786z"/>
	</g>
</g>
<g>
</g>
<g>
</g>
<g>
</g>
<g>
</g>
<g>
</g>
<g>
</g>
<g>
</g>
<g>
</g>
<g>
</g>
<g>
</g>
<g>
</g>
<g>
</g>
<g>
</g>
<g>
</g>
<g>
</g>
</svg>
